<svg width="69" height="69" viewBox="0 0 69 69" fill="none" xmlns="http://www.w3.org/2000/svg">
<path d="M34.26 51.82C27.2241 51.9201 20.4903 48.9654 15.8 43.72C15.3147 43.1745 15.1652 42.4079 15.41 41.72C16.67 38.31 20.08 30.4 24.46 30.37C26.71 30.37 28.31 32.11 29.64 33.51C30.0795 33.997 30.5506 34.4547 31.05 34.88C32.05 33.88 34.05 30.53 35.63 27.17C36.0967 26.1648 37.2898 25.7283 38.295 26.195C39.3002 26.6617 39.7367 27.8548 39.27 28.86C34.54 39 32 39 31.2 39C29.35 39 28.02 37.59 26.73 36.22C26.15 35.61 24.95 34.34 24.48 34.34V34.34C23.48 34.51 21.22 38.04 19.62 41.91C23.4848 45.8006 28.7775 47.9336 34.26 47.81C42.19 47.81 48.11 45.66 50.66 41.87C49.78 31.81 44.24 18.15 34.26 18.15C25.82 18.15 19.46 24.03 15.36 35.63C14.9927 36.6738 13.8488 37.2223 12.805 36.855C11.7612 36.4877 11.2127 35.3438 11.58 34.3C16.31 20.93 23.94 14.15 34.26 14.15C47.75 14.15 53.96 31.38 54.71 42.24C54.7368 42.6341 54.6464 43.0273 54.45 43.37C51.31 48.82 44.14 51.82 34.26 51.82Z" fill="currentColor"/>
</svg>
